<mxfile host="Electron" agent="Mozilla/5.0 (Windows NT 10.0; Win64; x64) AppleWebKit/537.36 (KHTML, like Gecko) draw.io/24.7.8 Chrome/128.0.6613.36 Electron/32.0.1 Safari/537.36" version="24.7.8">
  <diagram name="Page-1" id="c4acf3e9-155e-7222-9cf6-157b1a14988f">
    <mxGraphModel dx="2546" dy="1480" grid="1" gridSize="10" guides="1" tooltips="1" connect="1" arrows="1" fold="1" page="0" pageScale="1" pageWidth="850" pageHeight="1100" background="none" math="0" shadow="0">
      <root>
        <mxCell id="0" />
        <mxCell id="1" parent="0" />
        <mxCell id="ZMQL-lFIcWkPEMwfMGrY-3" value="&lt;span style=&quot;font-weight: 400;&quot;&gt;&amp;lt;&amp;lt;MonoBehaviour&amp;gt;&amp;gt;&lt;/span&gt;&lt;div&gt;Enemy&lt;/div&gt;" style="swimlane;fontStyle=1;align=center;verticalAlign=top;childLayout=stackLayout;horizontal=1;startSize=38;horizontalStack=0;resizeParent=1;resizeParentMax=0;resizeLast=0;collapsible=1;marginBottom=0;whiteSpace=wrap;html=1;" parent="1" vertex="1">
          <mxGeometry x="257.5" y="290" width="280" height="253" as="geometry" />
        </mxCell>
        <mxCell id="ZMQL-lFIcWkPEMwfMGrY-4" value="+ weightedTargets : Dictionary&amp;lt;Transform,float&amp;gt;&lt;div&gt;+ IsInUse : bool&lt;br&gt;&lt;div&gt;- decorators : IEnemyDecorator[]&lt;br&gt;&lt;/div&gt;&lt;div&gt;+ OnTakeDamage : Action&amp;lt;float&amp;gt;&lt;/div&gt;&lt;/div&gt;" style="text;strokeColor=none;fillColor=none;align=left;verticalAlign=top;spacingLeft=4;spacingRight=4;overflow=hidden;rotatable=0;points=[[0,0.5],[1,0.5]];portConstraint=eastwest;whiteSpace=wrap;html=1;" parent="ZMQL-lFIcWkPEMwfMGrY-3" vertex="1">
          <mxGeometry y="38" width="280" height="75" as="geometry" />
        </mxCell>
        <mxCell id="ZMQL-lFIcWkPEMwfMGrY-5" value="" style="line;strokeWidth=1;fillColor=none;align=left;verticalAlign=middle;spacingTop=-1;spacingLeft=3;spacingRight=3;rotatable=0;labelPosition=right;points=[];portConstraint=eastwest;strokeColor=inherit;" parent="ZMQL-lFIcWkPEMwfMGrY-3" vertex="1">
          <mxGeometry y="113" width="280" height="8" as="geometry" />
        </mxCell>
        <mxCell id="ZMQL-lFIcWkPEMwfMGrY-6" value="+ Update()&lt;div&gt;&lt;span style=&quot;background-color: initial;&quot;&gt;&lt;br&gt;&lt;/span&gt;&lt;/div&gt;&lt;div&gt;&lt;span style=&quot;background-color: initial;&quot;&gt;+ Initialize(EnemyInfo)&lt;/span&gt;&lt;/div&gt;&lt;div&gt;&lt;span style=&quot;background-color: initial;&quot;&gt;+ TakeDamage(float)&lt;/span&gt;&lt;br&gt;&lt;/div&gt;&lt;div&gt;+ ResetDecorators()&lt;div&gt;+ AddDecorator()&lt;/div&gt;&lt;div&gt;+ Deactivate()&lt;/div&gt;&lt;div&gt;+ Activate()&lt;/div&gt;&lt;/div&gt;" style="text;strokeColor=none;fillColor=none;align=left;verticalAlign=top;spacingLeft=4;spacingRight=4;overflow=hidden;rotatable=0;points=[[0,0.5],[1,0.5]];portConstraint=eastwest;whiteSpace=wrap;html=1;" parent="ZMQL-lFIcWkPEMwfMGrY-3" vertex="1">
          <mxGeometry y="121" width="280" height="132" as="geometry" />
        </mxCell>
        <mxCell id="ZMQL-lFIcWkPEMwfMGrY-15" value="ObjectPool" style="swimlane;fontStyle=1;align=center;verticalAlign=top;childLayout=stackLayout;horizontal=1;startSize=26;horizontalStack=0;resizeParent=1;resizeParentMax=0;resizeLast=0;collapsible=1;marginBottom=0;whiteSpace=wrap;html=1;" parent="1" vertex="1">
          <mxGeometry x="591" y="80" width="210" height="148" as="geometry" />
        </mxCell>
        <mxCell id="ZMQL-lFIcWkPEMwfMGrY-16" value="+ activatedObjects : IPooledObject[]&lt;div&gt;+ sleepingObjects : IPooledObject[]&lt;/div&gt;" style="text;strokeColor=none;fillColor=none;align=left;verticalAlign=top;spacingLeft=4;spacingRight=4;overflow=hidden;rotatable=0;points=[[0,0.5],[1,0.5]];portConstraint=eastwest;whiteSpace=wrap;html=1;" parent="ZMQL-lFIcWkPEMwfMGrY-15" vertex="1">
          <mxGeometry y="26" width="210" height="44" as="geometry" />
        </mxCell>
        <mxCell id="ZMQL-lFIcWkPEMwfMGrY-17" value="" style="line;strokeWidth=1;fillColor=none;align=left;verticalAlign=middle;spacingTop=-1;spacingLeft=3;spacingRight=3;rotatable=0;labelPosition=right;points=[];portConstraint=eastwest;strokeColor=inherit;" parent="ZMQL-lFIcWkPEMwfMGrY-15" vertex="1">
          <mxGeometry y="70" width="210" height="8" as="geometry" />
        </mxCell>
        <mxCell id="ZMQL-lFIcWkPEMwfMGrY-18" value="+ TryActivateObject : T&lt;div&gt;+ AddObjectToPool(IPooledObject)&lt;/div&gt;" style="text;strokeColor=none;fillColor=none;align=left;verticalAlign=top;spacingLeft=4;spacingRight=4;overflow=hidden;rotatable=0;points=[[0,0.5],[1,0.5]];portConstraint=eastwest;whiteSpace=wrap;html=1;" parent="ZMQL-lFIcWkPEMwfMGrY-15" vertex="1">
          <mxGeometry y="78" width="210" height="70" as="geometry" />
        </mxCell>
        <mxCell id="ZMQL-lFIcWkPEMwfMGrY-19" value="&lt;p style=&quot;margin:0px;margin-top:4px;text-align:center;&quot;&gt;&lt;i&gt;&amp;lt;&amp;lt;Interface&amp;gt;&amp;gt;&lt;/i&gt;&lt;br&gt;&lt;b&gt;IPooledObject&lt;/b&gt;&lt;/p&gt;&lt;hr size=&quot;1&quot; style=&quot;border-style:solid;&quot;&gt;&lt;p style=&quot;margin:0px;margin-left:4px;&quot;&gt;+ IsInUse : bool&lt;/p&gt;&lt;hr size=&quot;1&quot; style=&quot;border-style:solid;&quot;&gt;&lt;p style=&quot;margin:0px;margin-left:4px;&quot;&gt;+ Deactivate()&lt;br&gt;+ Activate()&lt;/p&gt;" style="verticalAlign=top;align=left;overflow=fill;html=1;whiteSpace=wrap;" parent="1" vertex="1">
          <mxGeometry x="624.5" y="280" width="140" height="110" as="geometry" />
        </mxCell>
        <mxCell id="ZMQL-lFIcWkPEMwfMGrY-23" value="" style="endArrow=block;dashed=1;endFill=0;endSize=12;html=1;rounded=0;exitX=0.998;exitY=0.13;exitDx=0;exitDy=0;exitPerimeter=0;entryX=-0.004;entryY=0.382;entryDx=0;entryDy=0;entryPerimeter=0;" parent="1" source="ZMQL-lFIcWkPEMwfMGrY-3" target="ZMQL-lFIcWkPEMwfMGrY-19" edge="1">
          <mxGeometry width="160" relative="1" as="geometry">
            <mxPoint x="520" y="190" as="sourcePoint" />
            <mxPoint x="680" y="190" as="targetPoint" />
          </mxGeometry>
        </mxCell>
        <mxCell id="ZMQL-lFIcWkPEMwfMGrY-29" value="&lt;p style=&quot;margin:0px;margin-top:4px;text-align:center;&quot;&gt;&lt;i&gt;&amp;lt;&amp;lt;Interface&amp;gt;&amp;gt;&lt;/i&gt;&lt;br&gt;&lt;b&gt;IEnemyDecorator&lt;/b&gt;&lt;/p&gt;&lt;hr size=&quot;1&quot; style=&quot;border-style:solid;&quot;&gt;&lt;p style=&quot;margin:0px;margin-left:4px;&quot;&gt;&lt;/p&gt;&lt;p style=&quot;margin:0px;margin-left:4px;&quot;&gt;+ OnSpawn(Enemy)&lt;/p&gt;&lt;p style=&quot;margin:0px;margin-left:4px;&quot;&gt;+ OnUpdate(Enemy)&lt;/p&gt;&lt;p style=&quot;margin:0px;margin-left:4px;&quot;&gt;+ OnDeath(Enemy)&lt;/p&gt;" style="verticalAlign=top;align=left;overflow=fill;html=1;whiteSpace=wrap;" parent="1" vertex="1">
          <mxGeometry x="322.5" y="580" width="155" height="100" as="geometry" />
        </mxCell>
        <mxCell id="ZMQL-lFIcWkPEMwfMGrY-35" value="&lt;b&gt;MeleeAttackDecorator&lt;/b&gt;" style="html=1;whiteSpace=wrap;" parent="1" vertex="1">
          <mxGeometry x="460" y="800" width="150" height="50" as="geometry" />
        </mxCell>
        <mxCell id="ZMQL-lFIcWkPEMwfMGrY-36" value="&lt;b&gt;ProjectileAttackDecorator&lt;/b&gt;" style="html=1;whiteSpace=wrap;" parent="1" vertex="1">
          <mxGeometry x="190" y="800" width="170" height="50" as="geometry" />
        </mxCell>
        <mxCell id="ZMQL-lFIcWkPEMwfMGrY-37" style="edgeStyle=orthogonalEdgeStyle;rounded=0;orthogonalLoop=1;jettySize=auto;html=1;exitX=0.5;exitY=1;exitDx=0;exitDy=0;" parent="1" source="ZMQL-lFIcWkPEMwfMGrY-35" target="ZMQL-lFIcWkPEMwfMGrY-35" edge="1">
          <mxGeometry relative="1" as="geometry" />
        </mxCell>
        <mxCell id="ZMQL-lFIcWkPEMwfMGrY-38" value="" style="endArrow=block;dashed=1;endFill=0;endSize=12;html=1;rounded=0;exitX=0.5;exitY=0;exitDx=0;exitDy=0;entryX=0.75;entryY=1;entryDx=0;entryDy=0;" parent="1" source="ZMQL-lFIcWkPEMwfMGrY-35" target="ZMQL-lFIcWkPEMwfMGrY-29" edge="1">
          <mxGeometry width="160" relative="1" as="geometry">
            <mxPoint x="550" y="720" as="sourcePoint" />
            <mxPoint x="710" y="720" as="targetPoint" />
            <Array as="points">
              <mxPoint x="535" y="760" />
              <mxPoint x="439" y="760" />
            </Array>
          </mxGeometry>
        </mxCell>
        <mxCell id="ZMQL-lFIcWkPEMwfMGrY-39" value="" style="endArrow=block;dashed=1;endFill=0;endSize=12;html=1;rounded=0;exitX=0.5;exitY=0;exitDx=0;exitDy=0;entryX=0.25;entryY=1;entryDx=0;entryDy=0;" parent="1" source="ZMQL-lFIcWkPEMwfMGrY-36" target="ZMQL-lFIcWkPEMwfMGrY-29" edge="1">
          <mxGeometry width="160" relative="1" as="geometry">
            <mxPoint x="550" y="590" as="sourcePoint" />
            <mxPoint x="710" y="590" as="targetPoint" />
            <Array as="points">
              <mxPoint x="275" y="760" />
              <mxPoint x="360" y="760" />
            </Array>
          </mxGeometry>
        </mxCell>
        <mxCell id="ZMQL-lFIcWkPEMwfMGrY-40" value="&lt;b&gt;TowerTargetingDecorator&lt;/b&gt;" style="html=1;whiteSpace=wrap;" parent="1" vertex="1">
          <mxGeometry x="220" y="910" width="165" height="50" as="geometry" />
        </mxCell>
        <mxCell id="ZMQL-lFIcWkPEMwfMGrY-41" value="" style="endArrow=block;dashed=1;endFill=0;endSize=12;html=1;rounded=0;exitX=0.5;exitY=0;exitDx=0;exitDy=0;entryX=0.403;entryY=1.03;entryDx=0;entryDy=0;entryPerimeter=0;" parent="1" source="ZMQL-lFIcWkPEMwfMGrY-40" target="ZMQL-lFIcWkPEMwfMGrY-29" edge="1">
          <mxGeometry width="160" relative="1" as="geometry">
            <mxPoint x="550" y="590" as="sourcePoint" />
            <mxPoint x="710" y="590" as="targetPoint" />
            <Array as="points">
              <mxPoint x="303" y="880" />
              <mxPoint x="385" y="880" />
            </Array>
          </mxGeometry>
        </mxCell>
        <mxCell id="ZMQL-lFIcWkPEMwfMGrY-42" value="&lt;b&gt;CastleTargetingDecorator&lt;/b&gt;" style="html=1;whiteSpace=wrap;" parent="1" vertex="1">
          <mxGeometry x="413" y="910" width="165" height="50" as="geometry" />
        </mxCell>
        <mxCell id="ZMQL-lFIcWkPEMwfMGrY-43" value="" style="endArrow=block;dashed=1;endFill=0;endSize=12;html=1;rounded=0;exitX=0.5;exitY=0;exitDx=0;exitDy=0;entryX=0.597;entryY=1.02;entryDx=0;entryDy=0;entryPerimeter=0;" parent="1" source="ZMQL-lFIcWkPEMwfMGrY-42" target="ZMQL-lFIcWkPEMwfMGrY-29" edge="1">
          <mxGeometry width="160" relative="1" as="geometry">
            <mxPoint x="537.5" y="910" as="sourcePoint" />
            <mxPoint x="408.02" y="690" as="targetPoint" />
            <Array as="points">
              <mxPoint x="496" y="880" />
              <mxPoint x="415" y="880" />
            </Array>
          </mxGeometry>
        </mxCell>
        <mxCell id="ZMQL-lFIcWkPEMwfMGrY-44" value="&lt;p style=&quot;margin:0px;margin-top:4px;text-align:center;&quot;&gt;&amp;nbsp;&lt;span style=&quot;background-color: initial;&quot;&gt;&amp;lt;&amp;lt;ScriptableObject&amp;gt;&amp;gt;&lt;/span&gt;&lt;b&gt;&lt;br&gt;&lt;/b&gt;&lt;/p&gt;&lt;p style=&quot;margin:0px;margin-top:4px;text-align:center;&quot;&gt;&lt;b&gt;EnemyInfo&lt;/b&gt;&lt;/p&gt;&lt;hr size=&quot;1&quot; style=&quot;border-style:solid;&quot;&gt;&lt;p style=&quot;margin:0px;margin-left:4px;&quot;&gt;+ name : String&lt;/p&gt;&lt;p style=&quot;margin:0px;margin-left:4px;&quot;&gt;+ decorators : IEnemyDecorator[]&lt;/p&gt;&lt;p style=&quot;margin:0px;margin-left:4px;&quot;&gt;&lt;br&gt;&lt;/p&gt;" style="verticalAlign=top;align=left;overflow=fill;html=1;whiteSpace=wrap;" parent="1" vertex="1">
          <mxGeometry x="-10" y="140" width="190" height="100" as="geometry" />
        </mxCell>
        <mxCell id="ZMQL-lFIcWkPEMwfMGrY-46" value="" style="endArrow=diamondThin;endFill=0;endSize=24;html=1;rounded=0;entryX=0.5;entryY=1;entryDx=0;entryDy=0;exitX=0;exitY=0.25;exitDx=0;exitDy=0;" parent="1" source="ZMQL-lFIcWkPEMwfMGrY-29" target="ZMQL-lFIcWkPEMwfMGrY-44" edge="1">
          <mxGeometry width="160" relative="1" as="geometry">
            <mxPoint x="520" y="450" as="sourcePoint" />
            <mxPoint x="680" y="450" as="targetPoint" />
            <Array as="points">
              <mxPoint x="85" y="605" />
            </Array>
          </mxGeometry>
        </mxCell>
        <mxCell id="ZMQL-lFIcWkPEMwfMGrY-48" value="" style="endArrow=diamondThin;endFill=0;endSize=24;html=1;rounded=0;entryX=-0.002;entryY=0.024;entryDx=0;entryDy=0;exitX=0.75;exitY=0;exitDx=0;exitDy=0;entryPerimeter=0;" parent="1" source="ZMQL-lFIcWkPEMwfMGrY-44" target="YiVXIB0aYjEZppMXGm42-6" edge="1">
          <mxGeometry width="160" relative="1" as="geometry">
            <mxPoint x="520" y="450" as="sourcePoint" />
            <mxPoint x="680" y="450" as="targetPoint" />
            <Array as="points">
              <mxPoint x="133" y="-99" />
            </Array>
          </mxGeometry>
        </mxCell>
        <mxCell id="YiVXIB0aYjEZppMXGm42-5" value="&lt;span style=&quot;font-weight: 400;&quot;&gt;&amp;lt;&amp;lt;MonoBehaviour&amp;gt;&amp;gt;&lt;/span&gt;&lt;div&gt;EnemyWaveSystem&lt;div&gt;&lt;br&gt;&lt;/div&gt;&lt;/div&gt;" style="swimlane;fontStyle=1;align=center;verticalAlign=top;childLayout=stackLayout;horizontal=1;startSize=39;horizontalStack=0;resizeParent=1;resizeParentMax=0;resizeLast=0;collapsible=1;marginBottom=0;whiteSpace=wrap;html=1;" parent="1" vertex="1">
          <mxGeometry x="262.5" y="-140" width="270" height="183" as="geometry" />
        </mxCell>
        <mxCell id="YiVXIB0aYjEZppMXGm42-6" value="+ enemyTypes : Dictionary&amp;lt;String, EnemyInfo&amp;gt;&lt;div&gt;&lt;div&gt;+ spawners : BasicEnemySpawner[]&lt;/div&gt;&lt;div&gt;+ enemyPool : ObjectPool&lt;br&gt;&lt;/div&gt;&lt;div&gt;+ waves : WaveInfo[]&lt;/div&gt;&lt;div&gt;- currentWave : int&lt;/div&gt;&lt;div&gt;&lt;br&gt;&lt;/div&gt;&lt;/div&gt;" style="text;strokeColor=none;fillColor=none;align=left;verticalAlign=top;spacingLeft=4;spacingRight=4;overflow=hidden;rotatable=0;points=[[0,0.5],[1,0.5]];portConstraint=eastwest;whiteSpace=wrap;html=1;" parent="YiVXIB0aYjEZppMXGm42-5" vertex="1">
          <mxGeometry y="39" width="270" height="84" as="geometry" />
        </mxCell>
        <mxCell id="YiVXIB0aYjEZppMXGm42-7" value="" style="line;strokeWidth=1;fillColor=none;align=left;verticalAlign=middle;spacingTop=-1;spacingLeft=3;spacingRight=3;rotatable=0;labelPosition=right;points=[];portConstraint=eastwest;strokeColor=inherit;" parent="YiVXIB0aYjEZppMXGm42-5" vertex="1">
          <mxGeometry y="123" width="270" height="8" as="geometry" />
        </mxCell>
        <mxCell id="YiVXIB0aYjEZppMXGm42-8" value="+ StartWave(int)" style="text;strokeColor=none;fillColor=none;align=left;verticalAlign=top;spacingLeft=4;spacingRight=4;overflow=hidden;rotatable=0;points=[[0,0.5],[1,0.5]];portConstraint=eastwest;whiteSpace=wrap;html=1;" parent="YiVXIB0aYjEZppMXGm42-5" vertex="1">
          <mxGeometry y="131" width="270" height="52" as="geometry" />
        </mxCell>
        <mxCell id="YiVXIB0aYjEZppMXGm42-9" value="" style="endArrow=open;endFill=1;endSize=12;html=1;rounded=0;entryX=0.5;entryY=0;entryDx=0;entryDy=0;exitX=0.494;exitY=1;exitDx=0;exitDy=0;exitPerimeter=0;dashed=1;" parent="1" source="YiVXIB0aYjEZppMXGm42-25" target="ZMQL-lFIcWkPEMwfMGrY-3" edge="1">
          <mxGeometry width="160" relative="1" as="geometry">
            <mxPoint x="370" y="161.19999999999982" as="sourcePoint" />
            <mxPoint x="560" y="140" as="targetPoint" />
          </mxGeometry>
        </mxCell>
        <mxCell id="YiVXIB0aYjEZppMXGm42-10" value="Creates" style="edgeLabel;html=1;align=center;verticalAlign=middle;resizable=0;points=[];" parent="YiVXIB0aYjEZppMXGm42-9" vertex="1" connectable="0">
          <mxGeometry x="-0.2717" y="2" relative="1" as="geometry">
            <mxPoint x="-3" as="offset" />
          </mxGeometry>
        </mxCell>
        <mxCell id="YiVXIB0aYjEZppMXGm42-13" value="" style="endArrow=diamondThin;endFill=0;endSize=24;html=1;rounded=0;exitX=0.5;exitY=0;exitDx=0;exitDy=0;entryX=0.486;entryY=0.986;entryDx=0;entryDy=0;entryPerimeter=0;" parent="1" source="ZMQL-lFIcWkPEMwfMGrY-19" target="ZMQL-lFIcWkPEMwfMGrY-18" edge="1">
          <mxGeometry width="160" relative="1" as="geometry">
            <mxPoint x="198" y="140" as="sourcePoint" />
            <mxPoint x="693" y="60" as="targetPoint" />
          </mxGeometry>
        </mxCell>
        <mxCell id="YiVXIB0aYjEZppMXGm42-22" value="&lt;span style=&quot;font-weight: 400;&quot;&gt;&amp;lt;&amp;lt;MonoBehaviour&amp;gt;&amp;gt;&lt;/span&gt;&lt;div&gt;EnemySpawnpoint&lt;/div&gt;" style="swimlane;fontStyle=1;align=center;verticalAlign=top;childLayout=stackLayout;horizontal=1;startSize=40;horizontalStack=0;resizeParent=1;resizeParentMax=0;resizeLast=0;collapsible=1;marginBottom=0;whiteSpace=wrap;html=1;" parent="1" vertex="1">
          <mxGeometry x="270" y="83" width="260" height="162" as="geometry" />
        </mxCell>
        <mxCell id="YiVXIB0aYjEZppMXGm42-23" value="+ spawnsPerSecond : float&lt;div&gt;+ spawnQueue : EnemyInfo[]&lt;/div&gt;" style="text;strokeColor=none;fillColor=none;align=left;verticalAlign=top;spacingLeft=4;spacingRight=4;overflow=hidden;rotatable=0;points=[[0,0.5],[1,0.5]];portConstraint=eastwest;whiteSpace=wrap;html=1;" parent="YiVXIB0aYjEZppMXGm42-22" vertex="1">
          <mxGeometry y="40" width="260" height="54" as="geometry" />
        </mxCell>
        <mxCell id="YiVXIB0aYjEZppMXGm42-24" value="" style="line;strokeWidth=1;fillColor=none;align=left;verticalAlign=middle;spacingTop=-1;spacingLeft=3;spacingRight=3;rotatable=0;labelPosition=right;points=[];portConstraint=eastwest;strokeColor=inherit;" parent="YiVXIB0aYjEZppMXGm42-22" vertex="1">
          <mxGeometry y="94" width="260" height="8" as="geometry" />
        </mxCell>
        <mxCell id="YiVXIB0aYjEZppMXGm42-25" value="&lt;div&gt;+ AddToQueue(EnemyInfo)&lt;/div&gt;- Spawn(EnemyInfo) : Enemy&lt;div&gt;&lt;br&gt;&lt;/div&gt;" style="text;strokeColor=none;fillColor=none;align=left;verticalAlign=top;spacingLeft=4;spacingRight=4;overflow=hidden;rotatable=0;points=[[0,0.5],[1,0.5]];portConstraint=eastwest;whiteSpace=wrap;html=1;" parent="YiVXIB0aYjEZppMXGm42-22" vertex="1">
          <mxGeometry y="102" width="260" height="60" as="geometry" />
        </mxCell>
        <mxCell id="YiVXIB0aYjEZppMXGm42-30" value="" style="endArrow=diamondThin;endFill=1;endSize=24;html=1;rounded=0;entryX=0.509;entryY=1.019;entryDx=0;entryDy=0;entryPerimeter=0;exitX=0.5;exitY=0;exitDx=0;exitDy=0;" parent="1" source="YiVXIB0aYjEZppMXGm42-22" target="YiVXIB0aYjEZppMXGm42-8" edge="1">
          <mxGeometry width="160" relative="1" as="geometry">
            <mxPoint x="440" y="270" as="sourcePoint" />
            <mxPoint x="600" y="270" as="targetPoint" />
          </mxGeometry>
        </mxCell>
        <mxCell id="YiVXIB0aYjEZppMXGm42-31" value="&lt;p style=&quot;margin:0px;margin-top:4px;text-align:center;&quot;&gt;&lt;b style=&quot;background-color: initial;&quot;&gt;&amp;nbsp;&lt;/b&gt;&lt;span style=&quot;background-color: initial;&quot;&gt;&amp;lt;&amp;lt;ScriptableObject&amp;gt;&amp;gt;&lt;/span&gt;&lt;/p&gt;&lt;p style=&quot;margin:0px;margin-top:4px;text-align:center;&quot;&gt;&lt;b&gt;WaveInfo&lt;/b&gt;&lt;/p&gt;&lt;hr size=&quot;1&quot; style=&quot;border-style:solid;&quot;&gt;&lt;p style=&quot;margin:0px;margin-left:4px;&quot;&gt;+ waveElements : WaveInfoElement[]&lt;/p&gt;&lt;p style=&quot;margin:0px;margin-left:4px;&quot;&gt;&lt;br&gt;&lt;/p&gt;" style="verticalAlign=top;align=left;overflow=fill;html=1;whiteSpace=wrap;" parent="1" vertex="1">
          <mxGeometry x="-170" y="-70" width="210" height="80" as="geometry" />
        </mxCell>
        <mxCell id="YiVXIB0aYjEZppMXGm42-32" value="" style="endArrow=diamondThin;endFill=0;endSize=24;html=1;rounded=0;entryX=0;entryY=0.5;entryDx=0;entryDy=0;exitX=1;exitY=0.175;exitDx=0;exitDy=0;jumpStyle=gap;exitPerimeter=0;" parent="1" source="YiVXIB0aYjEZppMXGm42-31" target="YiVXIB0aYjEZppMXGm42-6" edge="1">
          <mxGeometry width="160" relative="1" as="geometry">
            <mxPoint x="280" y="130" as="sourcePoint" />
            <mxPoint x="440" y="130" as="targetPoint" />
          </mxGeometry>
        </mxCell>
        <mxCell id="YiVXIB0aYjEZppMXGm42-33" value="&lt;p style=&quot;margin:0px;margin-top:4px;text-align:center;&quot;&gt;&lt;i&gt;&amp;lt;&amp;lt;Struct&amp;gt;&amp;gt;&lt;/i&gt;&lt;b&gt;&lt;br&gt;&lt;/b&gt;&lt;/p&gt;&lt;p style=&quot;margin:0px;margin-top:4px;text-align:center;&quot;&gt;&lt;b&gt;WaveInfoElement&lt;/b&gt;&lt;/p&gt;&lt;hr size=&quot;1&quot; style=&quot;border-style:solid;&quot;&gt;&lt;p style=&quot;margin:0px;margin-left:4px;&quot;&gt;+ enemyTypeName : String&lt;/p&gt;&lt;p style=&quot;margin:0px;margin-left:4px;&quot;&gt;+ spawnAmount : int&lt;/p&gt;&lt;p style=&quot;margin:0px;margin-left:4px;&quot;&gt;&lt;br&gt;&lt;/p&gt;" style="verticalAlign=top;align=left;overflow=fill;html=1;whiteSpace=wrap;" parent="1" vertex="1">
          <mxGeometry x="-250" y="60" width="190" height="100" as="geometry" />
        </mxCell>
        <mxCell id="YiVXIB0aYjEZppMXGm42-34" value="" style="endArrow=diamondThin;endFill=0;endSize=24;html=1;rounded=0;exitX=0.75;exitY=0;exitDx=0;exitDy=0;entryX=0.5;entryY=1;entryDx=0;entryDy=0;" parent="1" source="YiVXIB0aYjEZppMXGm42-33" target="YiVXIB0aYjEZppMXGm42-31" edge="1">
          <mxGeometry width="160" relative="1" as="geometry">
            <mxPoint x="160" y="130" as="sourcePoint" />
            <mxPoint x="-107" y="10" as="targetPoint" />
            <Array as="points">
              <mxPoint x="-107" y="40" />
              <mxPoint x="-65" y="40" />
            </Array>
          </mxGeometry>
        </mxCell>
        <mxCell id="YiVXIB0aYjEZppMXGm42-35" value="" style="endArrow=block;startArrow=block;endFill=1;startFill=1;html=1;rounded=0;exitX=1;exitY=0.5;exitDx=0;exitDy=0;entryX=0;entryY=0.5;entryDx=0;entryDy=0;" parent="1" source="YiVXIB0aYjEZppMXGm42-33" target="ZMQL-lFIcWkPEMwfMGrY-44" edge="1">
          <mxGeometry width="160" relative="1" as="geometry">
            <mxPoint x="160" y="130" as="sourcePoint" />
            <mxPoint x="320" y="130" as="targetPoint" />
            <Array as="points">
              <mxPoint x="-30" y="110" />
              <mxPoint x="-30" y="190" />
            </Array>
          </mxGeometry>
        </mxCell>
        <mxCell id="YiVXIB0aYjEZppMXGm42-40" value="&lt;p style=&quot;margin:0px;margin-top:4px;text-align:center;&quot;&gt;&lt;i&gt;&amp;lt;&amp;lt;Interface&amp;gt;&amp;gt;&lt;/i&gt;&lt;br&gt;&lt;b&gt;IHealthHaver&lt;/b&gt;&lt;/p&gt;&lt;hr size=&quot;1&quot; style=&quot;border-style:solid;&quot;&gt;&lt;p style=&quot;margin:0px;margin-left:4px;&quot;&gt;+ Health : float&lt;/p&gt;&lt;p style=&quot;margin:0px;margin-left:4px;&quot;&gt;+ OnHealthChanged: Action&amp;lt;float&amp;gt;&lt;/p&gt;&lt;p style=&quot;margin:0px;margin-left:4px;&quot;&gt;&lt;br&gt;&lt;/p&gt;" style="verticalAlign=top;align=left;overflow=fill;html=1;whiteSpace=wrap;" parent="1" vertex="1">
          <mxGeometry x="620" y="516" width="207" height="90" as="geometry" />
        </mxCell>
        <mxCell id="YiVXIB0aYjEZppMXGm42-42" value="" style="endArrow=block;dashed=1;endFill=0;endSize=12;html=1;rounded=0;entryX=0;entryY=0.25;entryDx=0;entryDy=0;exitX=1.005;exitY=0.636;exitDx=0;exitDy=0;exitPerimeter=0;" parent="1" source="ZMQL-lFIcWkPEMwfMGrY-6" target="YiVXIB0aYjEZppMXGm42-40" edge="1">
          <mxGeometry width="160" relative="1" as="geometry">
            <mxPoint x="200" y="370" as="sourcePoint" />
            <mxPoint x="360" y="370" as="targetPoint" />
            <Array as="points">
              <mxPoint x="590" y="495" />
              <mxPoint x="590" y="538" />
            </Array>
          </mxGeometry>
        </mxCell>
        <mxCell id="YiVXIB0aYjEZppMXGm42-43" value="&lt;span style=&quot;font-weight: 400;&quot;&gt;&amp;lt;&amp;lt;MonoBehaviour&amp;gt;&amp;gt;&lt;/span&gt;&lt;div&gt;UIHealthBar&lt;/div&gt;" style="swimlane;fontStyle=1;align=center;verticalAlign=top;childLayout=stackLayout;horizontal=1;startSize=39;horizontalStack=0;resizeParent=1;resizeParentMax=0;resizeLast=0;collapsible=1;marginBottom=0;whiteSpace=wrap;html=1;" parent="1" vertex="1">
          <mxGeometry x="667" y="666" width="224" height="118" as="geometry" />
        </mxCell>
        <mxCell id="YiVXIB0aYjEZppMXGm42-44" value="+ owner : IHealthHaver&lt;div&gt;&lt;br&gt;&lt;/div&gt;" style="text;strokeColor=none;fillColor=none;align=left;verticalAlign=top;spacingLeft=4;spacingRight=4;overflow=hidden;rotatable=0;points=[[0,0.5],[1,0.5]];portConstraint=eastwest;whiteSpace=wrap;html=1;" parent="YiVXIB0aYjEZppMXGm42-43" vertex="1">
          <mxGeometry y="39" width="224" height="44" as="geometry" />
        </mxCell>
        <mxCell id="YiVXIB0aYjEZppMXGm42-45" value="" style="line;strokeWidth=1;fillColor=none;align=left;verticalAlign=middle;spacingTop=-1;spacingLeft=3;spacingRight=3;rotatable=0;labelPosition=right;points=[];portConstraint=eastwest;strokeColor=inherit;" parent="YiVXIB0aYjEZppMXGm42-43" vertex="1">
          <mxGeometry y="83" width="224" height="8" as="geometry" />
        </mxCell>
        <mxCell id="YiVXIB0aYjEZppMXGm42-46" value="&amp;nbsp;" style="text;strokeColor=none;fillColor=none;align=left;verticalAlign=top;spacingLeft=4;spacingRight=4;overflow=hidden;rotatable=0;points=[[0,0.5],[1,0.5]];portConstraint=eastwest;whiteSpace=wrap;html=1;" parent="YiVXIB0aYjEZppMXGm42-43" vertex="1">
          <mxGeometry y="91" width="224" height="27" as="geometry" />
        </mxCell>
        <mxCell id="YiVXIB0aYjEZppMXGm42-59" value="&lt;p style=&quot;margin:0px;margin-top:4px;text-align:center;&quot;&gt;&lt;i&gt;&amp;lt;&amp;lt;Interface&amp;gt;&amp;gt;&lt;/i&gt;&lt;br&gt;&lt;b&gt;IDamageable&lt;/b&gt;&lt;/p&gt;&lt;hr size=&quot;1&quot; style=&quot;border-style:solid;&quot;&gt;&lt;p style=&quot;margin:0px;margin-left:4px;&quot;&gt;+ TakeDamage(float)&lt;/p&gt;&lt;p style=&quot;margin:0px;margin-left:4px;&quot;&gt;&lt;br&gt;&lt;/p&gt;" style="verticalAlign=top;align=left;overflow=fill;html=1;whiteSpace=wrap;" parent="1" vertex="1">
          <mxGeometry x="623" y="420" width="207" height="80" as="geometry" />
        </mxCell>
        <mxCell id="YiVXIB0aYjEZppMXGm42-60" value="" style="endArrow=block;dashed=1;endFill=0;endSize=12;html=1;rounded=0;entryX=0;entryY=0.25;entryDx=0;entryDy=0;exitX=1.005;exitY=0.22;exitDx=0;exitDy=0;exitPerimeter=0;" parent="1" source="ZMQL-lFIcWkPEMwfMGrY-6" target="YiVXIB0aYjEZppMXGm42-59" edge="1">
          <mxGeometry width="160" relative="1" as="geometry">
            <mxPoint x="440" y="390" as="sourcePoint" />
            <mxPoint x="600" y="390" as="targetPoint" />
          </mxGeometry>
        </mxCell>
        <mxCell id="JNWH3MgwHmGm7IiV7m9_-1" value="" style="endArrow=diamondThin;endFill=1;endSize=24;html=1;rounded=0;entryX=0.25;entryY=0;entryDx=0;entryDy=0;exitX=0.5;exitY=1;exitDx=0;exitDy=0;" parent="1" source="YiVXIB0aYjEZppMXGm42-40" target="YiVXIB0aYjEZppMXGm42-43" edge="1">
          <mxGeometry width="160" relative="1" as="geometry">
            <mxPoint x="313" y="400" as="sourcePoint" />
            <mxPoint x="473" y="400" as="targetPoint" />
          </mxGeometry>
        </mxCell>
        <mxCell id="CnDZhgSJxCHCcEDiLF-z-1" value="" style="endArrow=diamondThin;endFill=1;endSize=24;html=1;rounded=0;exitX=-0.001;exitY=-0.029;exitDx=0;exitDy=0;exitPerimeter=0;entryX=0.994;entryY=0.127;entryDx=0;entryDy=0;entryPerimeter=0;" edge="1" parent="1" source="ZMQL-lFIcWkPEMwfMGrY-16" target="YiVXIB0aYjEZppMXGm42-22">
          <mxGeometry width="160" relative="1" as="geometry">
            <mxPoint x="310" y="260" as="sourcePoint" />
            <mxPoint x="470" y="260" as="targetPoint" />
          </mxGeometry>
        </mxCell>
        <mxCell id="CnDZhgSJxCHCcEDiLF-z-4" value="" style="endArrow=diamondThin;endFill=0;endSize=24;html=1;rounded=0;entryX=0.505;entryY=0.995;entryDx=0;entryDy=0;entryPerimeter=0;exitX=0.5;exitY=0;exitDx=0;exitDy=0;" edge="1" parent="1" source="ZMQL-lFIcWkPEMwfMGrY-29" target="ZMQL-lFIcWkPEMwfMGrY-6">
          <mxGeometry width="160" relative="1" as="geometry">
            <mxPoint x="390" y="400" as="sourcePoint" />
            <mxPoint x="550" y="400" as="targetPoint" />
          </mxGeometry>
        </mxCell>
        <mxCell id="CnDZhgSJxCHCcEDiLF-z-5" value="" style="endArrow=open;endFill=1;endSize=12;html=1;rounded=0;entryX=0.75;entryY=1;entryDx=0;entryDy=0;exitX=-0.003;exitY=0.3;exitDx=0;exitDy=0;exitPerimeter=0;" edge="1" parent="1" source="ZMQL-lFIcWkPEMwfMGrY-6" target="ZMQL-lFIcWkPEMwfMGrY-44">
          <mxGeometry width="160" relative="1" as="geometry">
            <mxPoint x="390" y="400" as="sourcePoint" />
            <mxPoint x="550" y="400" as="targetPoint" />
            <Array as="points">
              <mxPoint x="133" y="450" />
            </Array>
          </mxGeometry>
        </mxCell>
      </root>
    </mxGraphModel>
  </diagram>
</mxfile>
